<svg version="1.1" id="Layer_1" xmlns="http://www.w3.org/2000/svg" xmlns:xlink="http://www.w3.org/1999/xlink" x="0px" y="0px"
	 width="100%" viewBox="0 0 1200 1199" enable-background="new 0 0 1200 1199" xml:space="preserve">
<path fill="#000000" opacity="1.000000" stroke="none" 
	d="
M704.000000,1200.000000 
	C469.333344,1200.000000 235.166672,1200.000000 1.000000,1200.000000 
	C1.000000,800.333313 1.000000,400.666656 1.000000,1.000000 
	C401.000000,1.000000 801.000000,1.000000 1201.000000,1.000000 
	C1201.000000,400.666656 1201.000000,800.333313 1201.000000,1200.000000 
	C1035.500000,1200.000000 870.000000,1200.000000 704.000000,1200.000000 
M15.375820,657.057312 
	C16.531096,666.308533 17.554794,675.578308 18.862610,684.807922 
	C28.715557,754.342407 50.570343,819.954407 84.409500,881.427917 
	C177.992325,1051.433960 343.901215,1162.776489 536.491272,1184.736816 
	C598.535156,1191.811523 660.297180,1188.728394 721.388062,1175.746460 
	C817.912048,1155.234985 903.945496,1113.018433 979.410217,1049.399536 
	C1125.357910,926.361267 1202.274536,740.781860 1186.192505,551.052124 
	C1181.740356,498.527313 1170.649780,447.506226 1152.328613,398.097656 
	C1115.884644,299.815643 1057.498047,216.813385 977.060852,149.708725 
	C880.517944,69.167999 769.195007,24.143240 643.857422,14.243832 
	C603.059143,11.021505 562.299011,12.412919 521.681946,17.869625 
	C470.475616,24.748951 420.848480,37.604507 373.412811,58.040646 
	C233.106079,118.487259 130.401367,218.078812 65.593979,356.381714 
	C35.712917,420.149719 19.321442,487.608276 14.191816,557.776978 
	C11.794354,590.572021 12.261329,623.386658 15.375820,657.057312 
z"/>
<path fill="#FFFFFF" opacity="1.000000" stroke="none" 
	d="
M15.320761,656.602783 
	C12.261329,623.386658 11.794354,590.572021 14.191816,557.776978 
	C19.321442,487.608276 35.712917,420.149719 65.593979,356.381714 
	C130.401367,218.078812 233.106079,118.487259 373.412811,58.040646 
	C420.848480,37.604507 470.475616,24.748951 521.681946,17.869625 
	C562.299011,12.412919 603.059143,11.021505 643.857422,14.243832 
	C769.195007,24.143240 880.517944,69.167999 977.060852,149.708725 
	C1057.498047,216.813385 1115.884644,299.815643 1152.328613,398.097656 
	C1170.649780,447.506226 1181.740356,498.527313 1186.192505,551.052124 
	C1202.274536,740.781860 1125.357910,926.361267 979.410217,1049.399536 
	C903.945496,1113.018433 817.912048,1155.234985 721.388062,1175.746460 
	C660.297180,1188.728394 598.535156,1191.811523 536.491272,1184.736816 
	C343.901215,1162.776489 177.992325,1051.433960 84.409500,881.427917 
	C50.570343,819.954407 28.715557,754.342407 18.862610,684.807922 
	C17.554794,675.578308 16.531096,666.308533 15.320761,656.602783 
M596.808350,490.696503 
	C605.580872,489.949371 614.555908,490.141724 623.092651,488.300964 
	C674.393494,477.238922 708.893982,434.544983 709.105774,382.068939 
	C709.299500,334.075439 709.149109,286.080536 709.144043,238.086273 
	C709.143982,237.136002 709.066101,236.185730 709.017029,235.064606 
	C636.924377,235.064606 565.182739,235.064606 493.118805,235.064606 
	C493.068207,236.182343 492.987000,237.138138 492.987061,238.093933 
	C492.991119,287.254669 492.796753,336.416718 493.106720,385.575592 
	C493.243530,407.275665 500.019135,427.180267 512.714294,444.806488 
	C533.144897,473.172821 561.073059,488.228241 596.808350,490.696503 
M928.769531,552.508911 
	C928.769531,584.215332 928.769531,615.921753 928.769531,647.628174 
	C927.271240,646.166992 926.566711,644.549988 925.922424,642.909302 
	C913.293030,610.748047 900.613708,578.606201 888.130310,546.388306 
	C886.796875,542.946777 885.281494,541.522400 881.410461,541.641907 
	C871.253845,541.955322 861.081116,541.747742 850.914856,541.747742 
	C847.995422,541.747742 845.076050,541.747681 842.303711,541.747681 
	C842.303711,600.828186 842.303711,659.229309 842.303711,717.612549 
	C852.895020,717.612549 863.151367,717.612549 874.008789,717.612549 
	C874.008789,679.922485 874.008789,642.493469 874.008789,605.064453 
	C876.192627,608.517090 877.629089,612.020569 879.055237,615.528259 
	C892.382141,648.305969 905.683838,681.094055 919.105286,713.833008 
	C919.747803,715.400391 921.417603,717.669922 922.652344,717.697937 
	C935.263611,717.983948 947.883850,717.872986 960.712036,717.872986 
	C960.712036,658.985046 960.712036,600.577820 960.712036,541.959473 
	C950.068604,541.959473 939.658081,541.959473 928.769531,541.959473 
	C928.769531,545.272522 928.769531,548.393005 928.769531,552.508911 
M344.708740,703.198730 
	C350.869568,696.808716 354.912079,689.127808 356.933990,680.637573 
	C364.850861,647.393738 364.880951,613.944275 357.418365,580.696777 
	C352.930267,560.701416 340.689728,547.307129 319.773529,543.497986 
	C314.074707,542.460144 308.203735,542.002136 302.405151,541.944397 
	C283.415405,541.755127 264.422577,541.867798 245.430923,541.881836 
	C243.984818,541.882874 242.538803,542.019836 241.100250,542.093201 
	C241.100250,600.785522 241.100250,659.156799 241.100250,716.899719 
	C266.019073,716.899719 290.641724,717.405273 315.227203,716.668701 
	C326.156006,716.341248 336.234741,711.806274 344.708740,703.198730 
M757.381470,555.901245 
	C760.178101,551.442627 762.974670,546.983948 766.182190,541.870300 
	C754.323364,541.870300 743.226685,542.018250 732.138367,541.779968 
	C728.814026,541.708557 727.173218,542.891174 725.533875,545.661621 
	C712.158508,568.266296 698.606323,590.766479 685.091980,613.288818 
	C684.389771,614.459106 683.542175,615.542175 681.993164,617.773987 
	C681.993164,591.651428 681.993164,566.936646 681.993164,542.119141 
	C669.697083,542.119141 657.791992,542.119141 645.755493,542.119141 
	C645.755493,600.761353 645.755493,659.154358 645.755493,717.597412 
	C657.961487,717.597412 669.869263,717.597412 682.120850,717.597412 
	C682.120850,689.602112 682.120850,661.888489 682.120850,632.747620 
	C683.485107,635.214783 684.224609,636.417725 684.838196,637.681824 
	C695.571777,659.795715 706.983765,681.617859 716.711914,704.166199 
	C721.404846,715.043701 727.074890,719.806641 739.110413,718.119324 
	C747.800049,716.901001 756.797974,717.881836 766.190247,717.881836 
	C765.082031,715.666016 764.382568,714.180664 763.609558,712.734619 
	C748.257507,684.014648 732.941589,655.275024 717.468811,626.620239 
	C715.930115,623.770630 715.881226,621.795837 717.665588,618.996460 
	C730.893433,598.244568 743.919617,577.364075 757.381470,555.901245 
M588.921631,555.572021 
	C587.597900,551.006409 586.274170,546.440857 584.987183,542.001953 
	C569.109314,542.001953 553.799255,542.001953 538.112122,542.001953 
	C521.607544,600.481201 505.109100,658.938660 488.474854,717.877258 
	C500.440125,717.877258 511.752350,717.971191 523.057068,717.722290 
	C524.109802,717.699097 525.699402,715.654663 526.049133,714.294128 
	C528.821289,703.508667 531.269653,692.639771 534.072998,681.862976 
	C534.396606,680.619080 536.274536,678.903931 537.450134,678.889465 
	C553.427856,678.692200 569.408875,678.756836 585.769958,678.756836 
	C589.003235,691.874146 592.197876,704.834778 595.341614,717.588684 
	C608.453247,717.588684 621.006958,717.588684 633.904846,717.588684 
	C618.891602,663.611084 603.978577,609.993774 588.921631,555.572021 
M399.501373,717.879089 
	C425.249725,717.879089 450.998108,717.879089 476.696503,717.879089 
	C476.696503,707.167175 476.696503,697.218506 476.696503,686.761353 
	C457.416962,686.761353 438.353210,686.761353 419.305573,686.761353 
	C419.305573,670.853455 419.305573,655.460388 419.305573,639.683411 
	C437.064575,639.683411 454.488953,639.683411 471.859314,639.683411 
	C471.859314,629.363953 471.859314,619.435791 471.859314,609.094849 
	C454.182129,609.094849 436.770844,609.094849 419.200012,609.094849 
	C419.200012,596.424316 419.200012,584.172607 419.200012,571.431152 
	C438.507172,571.431152 457.588928,571.431152 476.631775,571.431152 
	C476.631775,561.345154 476.631775,551.752502 476.631775,542.168335 
	C444.935547,542.168335 413.528931,542.168335 382.212219,542.168335 
	C382.212219,600.851746 382.212219,659.239197 382.212219,717.879089 
	C387.878387,717.879089 393.190216,717.879089 399.501373,717.879089 
M782.628967,618.499817 
	C782.628967,651.458740 782.628967,684.417725 782.628967,717.600220 
	C794.641174,717.600220 806.202942,717.600220 817.815552,717.600220 
	C817.815552,658.929138 817.815552,600.533936 817.815552,542.200928 
	C805.940491,542.200928 794.363342,542.200928 782.628967,542.200928 
	C782.628967,567.516724 782.628967,592.508240 782.628967,618.499817 
M331.069855,822.500000 
	C331.069855,830.998962 331.233215,839.502563 330.990326,847.994568 
	C330.891754,851.440308 332.194489,852.892822 335.418884,853.131958 
	C336.745575,853.230347 338.056335,853.534485 339.382629,853.649536 
	C344.641632,854.105957 345.982422,852.917114 345.992889,847.686096 
	C346.016937,835.687622 346.000458,823.689087 346.000458,811.690552 
	C346.000427,804.636108 346.000458,797.581726 346.000458,789.074646 
	C351.251648,797.147156 355.669891,803.920471 360.069214,810.706116 
	C368.395752,823.549133 376.697632,836.408203 385.041382,849.240051 
	C387.109375,852.420349 393.945526,854.711975 397.946167,853.610901 
	C402.754608,852.287415 401.048218,848.277710 401.061066,845.268799 
	C401.169983,819.772400 401.124969,794.275330 401.122345,768.778503 
	C401.121552,761.073181 400.322327,760.631226 392.862701,761.283325 
	C387.621796,761.741455 386.113373,763.820251 386.232819,769.099060 
	C386.613525,785.921692 386.373779,802.758423 386.373749,819.589661 
	C386.373749,821.072021 386.373779,822.554382 386.373779,824.036804 
	C373.265533,805.724060 361.309784,787.329407 349.346313,768.939880 
	C348.077087,766.988953 346.958923,764.893555 345.429749,763.167114 
	C341.784302,759.051270 337.278198,761.423767 333.315094,762.376099 
	C332.181152,762.648560 331.183777,766.037842 331.165680,768.007446 
	C331.002045,785.837097 331.069855,803.668884 331.069855,822.500000 
M624.995117,831.499756 
	C624.995117,836.661621 624.989197,841.823486 624.996765,846.985352 
	C625.004944,852.600220 626.796753,853.737915 634.764526,853.779602 
	C639.494202,853.804321 640.037964,851.078247 639.973389,847.248474 
	C639.817078,837.983154 639.922607,828.713379 639.922607,819.084717 
	C643.897156,819.084717 647.383118,819.334534 650.815674,819.013306 
	C654.138733,818.702393 655.861328,819.992737 657.431946,822.853821 
	C661.827393,830.861145 667.018982,838.455566 671.055237,846.628357 
	C674.299316,853.197144 679.670044,853.772278 685.606995,853.656616 
	C689.302856,853.584656 690.791504,851.739746 688.716736,848.142822 
	C685.811157,843.105530 682.907349,838.067200 680.009705,833.025391 
	C677.163879,828.073853 674.326660,823.117249 671.159790,817.594482 
	C681.792664,815.824402 686.724426,809.399414 687.593445,800.041016 
	C688.173889,793.789551 688.270569,787.340027 687.410400,781.142029 
	C685.942932,770.568481 681.040833,765.005493 670.386780,763.944641 
	C656.693726,762.581238 642.833435,762.841736 629.042053,762.560608 
	C625.507996,762.488586 624.942017,764.997864 624.953613,768.058044 
	C625.032593,788.871765 624.995056,809.685852 624.995117,831.499756 
M254.867844,771.611328 
	C254.867828,770.445801 254.874985,769.280212 254.866638,768.114746 
	C254.821014,761.749512 253.248581,760.396179 247.020538,761.397095 
	C245.543137,761.634460 243.868652,761.601868 242.666992,762.326843 
	C241.490768,763.036621 240.020370,764.551270 240.015579,765.718079 
	C239.930481,786.528870 239.540894,807.359070 240.300751,828.145508 
	C240.816422,842.251465 248.050903,850.721741 260.935059,852.421509 
	C269.682556,853.575623 278.839966,853.064941 287.644775,851.955505 
	C297.328369,850.735229 303.180389,844.123962 305.464600,834.727722 
	C306.398529,830.885925 306.914001,826.850708 306.948486,822.897583 
	C307.109772,804.416992 307.011078,785.934265 307.070587,767.452454 
	C307.081818,763.969421 306.764771,761.050049 302.198273,761.077454 
	C294.520020,761.123596 292.077637,762.668274 292.073578,767.788574 
	C292.060089,784.772095 292.106903,801.755737 292.034210,818.738953 
	C292.020020,822.049500 291.859833,825.410583 291.266785,828.656982 
	C289.999542,835.593994 286.171600,839.098816 279.248505,839.948608 
	C276.779968,840.251648 274.261688,840.322998 271.772675,840.255859 
	C259.729401,839.930969 255.106400,835.464905 254.980942,823.532837 
	C254.802383,806.551270 254.892502,789.566772 254.867844,771.611328 
M593.405212,775.885620 
	C594.570984,775.885620 595.736755,775.887390 596.902527,775.885254 
	C602.842468,775.874573 603.878052,774.479797 603.929504,767.438721 
	C603.965820,762.469177 600.766846,762.394958 597.199585,762.403809 
	C582.710938,762.439575 568.221985,762.397644 553.733276,762.428162 
	C547.270386,762.441772 546.879211,762.857422 546.877808,769.101685 
	C546.872253,794.415405 546.874329,819.729126 546.876160,845.042847 
	C546.876648,851.508362 547.396729,852.138794 553.916382,852.169067 
	C568.737854,852.237976 583.559998,852.214050 598.381714,852.178955 
	C602.778870,852.168579 603.857849,850.286194 603.930176,843.791260 
	C603.976196,839.661377 601.769958,838.796997 598.204773,838.873047 
	C591.379822,839.018494 584.549622,838.914734 577.721558,838.914551 
	C572.474243,838.914429 567.226868,838.914551 562.250183,838.914551 
	C562.250183,829.936768 562.250183,821.709045 562.250183,813.260559 
	C572.959167,813.260559 583.267334,813.321655 593.572998,813.190918 
	C595.020508,813.172607 597.153259,812.645508 597.783630,811.623108 
	C601.737793,805.209778 598.709595,799.958008 591.290344,799.956970 
	C581.529236,799.955627 571.768188,799.956665 562.176636,799.956665 
	C562.176636,791.570251 562.176636,783.829468 562.176636,775.885620 
	C572.479492,775.885620 582.453979,775.885620 593.405212,775.885620 
M477.255493,824.244080 
	C480.078522,832.578491 483.115692,840.848450 485.649628,849.269897 
	C487.353455,854.932495 492.003632,852.963562 495.554749,853.666504 
	C498.641571,854.277527 500.267487,852.523254 501.216827,849.461487 
	C503.821106,841.062256 506.774780,832.771729 509.561218,824.428589 
	C515.870422,805.537659 522.206787,786.655396 528.384583,767.721497 
	C528.932129,766.043457 529.174683,763.303833 528.230957,762.273987 
	C524.814880,758.545898 514.365601,761.715881 512.904480,766.695251 
	C506.919373,787.092163 500.975342,807.501099 494.995728,827.899658 
	C494.717377,828.849182 494.241821,829.740845 493.717773,830.995544 
	C487.465851,810.230774 481.390686,790.037964 475.305054,769.848328 
	C472.898529,761.864563 471.767700,761.042358 463.438477,761.101257 
	C457.792755,761.141174 456.755707,762.618042 458.605042,768.179932 
	C464.735931,786.618469 470.894867,805.047607 477.255493,824.244080 
M750.421387,774.813477 
	C751.082581,774.895264 751.784973,774.860291 752.398376,775.077209 
	C757.465332,776.869446 758.803772,773.787476 759.741699,769.748352 
	C760.770386,765.318237 758.470703,763.621033 754.684509,762.944580 
	C743.967285,761.029724 733.229797,759.830872 722.532349,762.967957 
	C714.573975,765.301819 709.267029,770.231384 707.542297,778.638916 
	C705.226501,789.927551 710.224609,800.309875 722.057739,807.947998 
	C727.220642,811.280701 732.778931,814.015991 737.838257,817.487976 
	C740.787781,819.512146 743.829712,822.042175 745.564087,825.069763 
	C749.810181,832.481934 744.602600,840.303589 734.477966,840.756409 
	C726.766113,841.101379 718.974731,839.580811 711.212463,838.969971 
	C709.846558,838.862549 707.411072,838.797241 707.237488,839.310486 
	C706.198364,842.382263 705.195129,845.638611 705.257324,848.811890 
	C705.277466,849.844177 708.486633,851.570557 710.318115,851.685120 
	C720.404724,852.316223 730.558899,853.288208 740.608032,852.712952 
	C751.454407,852.092041 759.173401,845.209900 760.932983,836.411133 
	C763.225647,824.947327 759.889709,815.288940 750.832275,807.897400 
	C747.246765,804.971497 743.131287,802.695251 739.258545,800.121155 
	C734.565063,797.001648 729.469299,794.338867 725.276245,790.650208 
	C719.175049,785.282959 720.955322,776.989868 728.851318,775.387268 
	C735.536438,774.030457 742.653992,774.803711 750.421387,774.813477 
M939.012024,808.585815 
	C939.837524,806.956726 940.662109,805.327087 941.488708,803.698486 
	C947.650818,791.556824 953.864685,779.440979 959.949646,767.260742 
	C962.256409,762.643433 961.339233,761.322449 956.305725,761.051331 
	C950.163513,760.720703 945.818298,762.354492 943.062195,768.775635 
	C938.060730,780.427979 932.081238,791.660461 926.072205,803.964661 
	C920.038391,791.646423 914.057617,780.388733 909.003479,768.729309 
	C906.348755,762.605103 902.314514,760.773560 896.286560,761.034058 
	C890.642273,761.277954 889.645935,762.663086 892.176208,767.658508 
	C897.052734,777.285950 901.393188,787.259338 907.092712,796.378784 
	C916.602417,811.594604 920.711060,827.684082 918.884521,845.553894 
	C918.157715,852.664307 918.765686,852.727661 926.068665,853.553894 
	C926.729797,853.628784 927.393311,853.696289 928.057556,853.729248 
	C931.695679,853.910156 933.699280,852.489075 933.622620,848.528687 
	C933.503479,842.370239 933.932922,836.184143 933.507019,830.052979 
	C932.979858,822.463745 934.428406,815.562134 939.012024,808.585815 
M854.198730,815.500061 
	C854.198730,802.417236 854.198730,789.334351 854.198730,776.006775 
	C861.466614,776.006775 868.108643,776.037109 874.750244,775.996216 
	C879.212585,775.968750 880.016357,774.413452 880.214233,767.662598 
	C880.335327,763.530640 878.369873,762.591736 874.733582,762.609314 
	C856.093201,762.699585 837.452209,762.636230 818.811401,762.661255 
	C814.206970,762.667419 813.198364,764.288208 813.081482,770.832886 
	C813.012146,774.710632 814.762695,776.144714 818.553711,776.052917 
	C825.330017,775.888794 832.113220,776.006653 839.238831,776.006653 
	C839.238831,778.088867 839.238831,779.718079 839.238831,781.347290 
	C839.238831,802.318176 839.238770,823.289124 839.238831,844.260010 
	C839.238831,852.878357 839.727234,853.318665 848.355225,853.741150 
	C852.558289,853.947021 854.361145,852.380859 854.268738,847.955017 
	C854.049927,837.474121 854.198669,826.985596 854.198730,815.500061 
M788.010193,853.392334 
	C795.973450,854.275940 796.609131,853.707031 796.609680,845.643799 
	C796.611450,819.653870 796.568848,793.663879 796.652100,767.674194 
	C796.665161,763.604614 795.986023,760.870972 790.980286,761.045654 
	C782.899292,761.327515 781.640930,762.051392 781.639404,767.749634 
	C781.632324,794.072754 781.746460,820.396790 781.528625,846.718079 
	C781.491882,851.156250 782.712463,853.317017 788.010193,853.392334 
M425.080383,776.514893 
	C425.080383,800.168762 425.176483,823.823425 424.984985,847.475708 
	C424.953400,851.374329 426.315277,852.958862 429.949005,853.175293 
	C431.939514,853.293884 434.176208,854.197388 435.837799,853.552124 
	C437.538055,852.891846 439.863251,850.781921 439.876160,849.288940 
	C440.117188,821.472717 440.082214,793.653809 439.970520,765.835938 
	C439.964874,764.433105 438.807678,761.870911 438.077362,761.830627 
	C434.337677,761.624329 430.408936,761.548401 426.887360,762.585205 
	C425.751434,762.919617 425.445343,766.751099 425.140991,769.033630 
	C424.857300,771.161316 425.080383,773.356567 425.080383,776.514893 
z"/>
<path fill="#141819" opacity="1.000000" stroke="none" 
	d="
M596.345154,490.678497 
	C561.073059,488.228241 533.144897,473.172821 512.714294,444.806488 
	C500.019135,427.180267 493.243530,407.275665 493.106720,385.575592 
	C492.796753,336.416718 492.991119,287.254669 492.987061,238.093933 
	C492.987000,237.138138 493.068207,236.182343 493.118805,235.064606 
	C565.182739,235.064606 636.924377,235.064606 709.017029,235.064606 
	C709.066101,236.185730 709.143982,237.136002 709.144043,238.086273 
	C709.149109,286.080536 709.299500,334.075439 709.105774,382.068939 
	C708.893982,434.544983 674.393494,477.238922 623.092651,488.300964 
	C614.555908,490.141724 605.580872,489.949371 596.345154,490.678497 
M653.834900,342.671478 
	C636.419739,312.391449 619.004578,282.111389 601.249695,251.240738 
	C598.019165,256.686157 595.025940,261.281403 592.564026,266.145630 
	C591.787964,267.678955 591.750549,270.297363 592.547607,271.795380 
	C596.527771,279.276581 600.895020,286.552002 605.131470,293.896729 
	C626.312134,330.617401 647.472717,367.349762 668.749817,404.014526 
	C669.682739,405.622070 671.611694,407.582153 673.207458,407.707062 
	C678.924988,408.154510 684.698853,407.882416 691.250610,407.882416 
	C678.619690,385.910889 666.382141,364.623505 653.834900,342.671478 
M608.342346,365.178284 
	C615.919983,378.257904 623.471680,391.352753 631.115112,404.393829 
	C631.891418,405.718384 633.165955,407.649017 634.300781,407.714569 
	C640.137390,408.051422 646.003845,407.870667 652.628235,407.870667 
	C628.884705,366.397339 605.662476,325.834534 582.040283,284.573090 
	C579.041687,289.646271 576.631470,294.149170 573.794922,298.365173 
	C572.066040,300.934814 572.160339,302.818787 573.728210,305.485626 
	C585.261475,325.103149 596.602539,344.833710 608.342346,365.178284 
M608.322266,407.884888 
	C610.218323,407.884888 612.114319,407.884888 614.892090,407.884888 
	C597.397400,377.266907 580.429016,347.569916 563.126404,317.288086 
	C560.067383,322.409546 557.705505,326.806213 554.905701,330.903625 
	C552.867310,333.886688 552.860779,336.183716 554.760254,339.390289 
	C566.028503,358.412323 577.511047,377.336670 587.889587,396.842957 
	C592.436279,405.388489 597.582397,409.985535 608.322266,407.884888 
M552.860962,402.738342 
	C554.440552,404.452118 555.887512,407.466766 557.623779,407.643829 
	C563.626587,408.255951 569.730286,407.879669 576.657959,407.879669 
	C565.531677,388.405701 554.874573,369.752869 543.901184,350.546448 
	C540.598450,356.070251 537.521667,360.785522 534.958130,365.764954 
	C534.184937,367.266815 534.146606,369.879883 534.946411,371.340942 
	C540.611328,381.690155 546.581909,391.872070 552.860962,402.738342 
M518.641235,407.895020 
	C524.902649,407.895020 531.164062,407.895020 538.223511,407.895020 
	C533.481140,399.759186 529.104614,392.250916 524.406128,384.190308 
	C519.682922,392.235352 515.277954,399.738373 510.489319,407.895020 
	C513.478027,407.895020 515.584534,407.895020 518.641235,407.895020 
z"/>
<path fill="#141819" opacity="1.000000" stroke="none" 
	d="
M928.769531,552.011230 
	C928.769531,548.393005 928.769531,545.272522 928.769531,541.959473 
	C939.658081,541.959473 950.068604,541.959473 960.712036,541.959473 
	C960.712036,600.577820 960.712036,658.985046 960.712036,717.872986 
	C947.883850,717.872986 935.263611,717.983948 922.652344,717.697937 
	C921.417603,717.669922 919.747803,715.400391 919.105286,713.833008 
	C905.683838,681.094055 892.382141,648.305969 879.055237,615.528259 
	C877.629089,612.020569 876.192627,608.517090 874.008789,605.064453 
	C874.008789,642.493469 874.008789,679.922485 874.008789,717.612549 
	C863.151367,717.612549 852.895020,717.612549 842.303711,717.612549 
	C842.303711,659.229309 842.303711,600.828186 842.303711,541.747681 
	C845.076050,541.747681 847.995422,541.747742 850.914856,541.747742 
	C861.081116,541.747742 871.253845,541.955322 881.410461,541.641907 
	C885.281494,541.522400 886.796875,542.946777 888.130310,546.388306 
	C900.613708,578.606201 913.293030,610.748047 925.922424,642.909302 
	C926.566711,644.549988 927.271240,646.166992 928.769531,647.628174 
	C928.769531,615.921753 928.769531,584.215332 928.769531,552.011230 
z"/>
<path fill="#15191A" opacity="1.000000" stroke="none" 
	d="
M344.457642,703.452759 
	C336.234741,711.806274 326.156006,716.341248 315.227203,716.668701 
	C290.641724,717.405273 266.019073,716.899719 241.100250,716.899719 
	C241.100250,659.156799 241.100250,600.785522 241.100250,542.093201 
	C242.538803,542.019836 243.984818,541.882874 245.430923,541.881836 
	C264.422577,541.867798 283.415405,541.755127 302.405151,541.944397 
	C308.203735,542.002136 314.074707,542.460144 319.773529,543.497986 
	C340.689728,547.307129 352.930267,560.701416 357.418365,580.696777 
	C364.880951,613.944275 364.850861,647.393738 356.933990,680.637573 
	C354.912079,689.127808 350.869568,696.808716 344.457642,703.452759 
M312.489136,683.145752 
	C319.162231,678.757996 322.363617,671.894592 322.772217,664.582764 
	C323.864838,645.030396 324.231476,625.426514 324.380676,605.839294 
	C324.423035,600.277832 323.154480,594.592224 321.735443,589.159912 
	C319.436768,580.359863 314.158691,573.617371 304.754089,572.279236 
	C295.954468,571.027161 286.966003,571.102356 277.934692,570.586304 
	C277.934692,610.018860 277.934692,648.526611 277.934692,687.428650 
	C282.346405,687.428650 286.472839,687.434570 290.599274,687.427368 
	C297.926270,687.414551 305.274902,687.514282 312.489136,683.145752 
z"/>
<path fill="#161A1B" opacity="1.000000" stroke="none" 
	d="
M757.195312,556.212646 
	C743.919617,577.364075 730.893433,598.244568 717.665588,618.996460 
	C715.881226,621.795837 715.930115,623.770630 717.468811,626.620239 
	C732.941589,655.275024 748.257507,684.014648 763.609558,712.734619 
	C764.382568,714.180664 765.082031,715.666016 766.190247,717.881836 
	C756.797974,717.881836 747.800049,716.901001 739.110413,718.119324 
	C727.074890,719.806641 721.404846,715.043701 716.711914,704.166199 
	C706.983765,681.617859 695.571777,659.795715 684.838196,637.681824 
	C684.224609,636.417725 683.485107,635.214783 682.120850,632.747620 
	C682.120850,661.888489 682.120850,689.602112 682.120850,717.597412 
	C669.869263,717.597412 657.961487,717.597412 645.755493,717.597412 
	C645.755493,659.154358 645.755493,600.761353 645.755493,542.119141 
	C657.791992,542.119141 669.697083,542.119141 681.993164,542.119141 
	C681.993164,566.936646 681.993164,591.651428 681.993164,617.773987 
	C683.542175,615.542175 684.389771,614.459106 685.091980,613.288818 
	C698.606323,590.766479 712.158508,568.266296 725.533875,545.661621 
	C727.173218,542.891174 728.814026,541.708557 732.138367,541.779968 
	C743.226685,542.018250 754.323364,541.870300 766.182190,541.870300 
	C762.974670,546.983948 760.178101,551.442627 757.195312,556.212646 
z"/>
<path fill="#15191A" opacity="1.000000" stroke="none" 
	d="
M588.993591,555.974243 
	C603.978577,609.993774 618.891602,663.611084 633.904846,717.588684 
	C621.006958,717.588684 608.453247,717.588684 595.341614,717.588684 
	C592.197876,704.834778 589.003235,691.874146 585.769958,678.756836 
	C569.408875,678.756836 553.427856,678.692200 537.450134,678.889465 
	C536.274536,678.903931 534.396606,680.619080 534.072998,681.862976 
	C531.269653,692.639771 528.821289,703.508667 526.049133,714.294128 
	C525.699402,715.654663 524.109802,717.699097 523.057068,717.722290 
	C511.752350,717.971191 500.440125,717.877258 488.474854,717.877258 
	C505.109100,658.938660 521.607544,600.481201 538.112122,542.001953 
	C553.799255,542.001953 569.109314,542.001953 584.987183,542.001953 
	C586.274170,546.440857 587.597900,551.006409 588.993591,555.974243 
M554.207764,600.773560 
	C550.280090,616.395874 546.352478,632.018127 542.385376,647.797363 
	C554.776672,647.797363 566.367188,647.797363 578.396362,647.797363 
	C572.587402,623.900574 566.850769,600.301453 560.781677,575.334778 
	C559.391174,580.716431 558.389893,584.565125 557.403381,588.417603 
	C556.416077,592.272522 555.443542,596.131287 554.207764,600.773560 
z"/>
<path fill="#15191A" opacity="1.000000" stroke="none" 
	d="
M399.001709,717.879089 
	C393.190216,717.879089 387.878387,717.879089 382.212219,717.879089 
	C382.212219,659.239197 382.212219,600.851746 382.212219,542.168335 
	C413.528931,542.168335 444.935547,542.168335 476.631775,542.168335 
	C476.631775,551.752502 476.631775,561.345154 476.631775,571.431152 
	C457.588928,571.431152 438.507172,571.431152 419.200012,571.431152 
	C419.200012,584.172607 419.200012,596.424316 419.200012,609.094849 
	C436.770844,609.094849 454.182129,609.094849 471.859314,609.094849 
	C471.859314,619.435791 471.859314,629.363953 471.859314,639.683411 
	C454.488953,639.683411 437.064575,639.683411 419.305573,639.683411 
	C419.305573,655.460388 419.305573,670.853455 419.305573,686.761353 
	C438.353210,686.761353 457.416962,686.761353 476.696503,686.761353 
	C476.696503,697.218506 476.696503,707.167175 476.696503,717.879089 
	C450.998108,717.879089 425.249725,717.879089 399.001709,717.879089 
z"/>
<path fill="#131718" opacity="1.000000" stroke="none" 
	d="
M782.628967,617.999756 
	C782.628967,592.508240 782.628967,567.516724 782.628967,542.200928 
	C794.363342,542.200928 805.940491,542.200928 817.815552,542.200928 
	C817.815552,600.533936 817.815552,658.929138 817.815552,717.600220 
	C806.202942,717.600220 794.641174,717.600220 782.628967,717.600220 
	C782.628967,684.417725 782.628967,651.458740 782.628967,617.999756 
z"/>
<path fill="#171B1C" opacity="1.000000" stroke="none" 
	d="
M331.069855,822.000000 
	C331.069855,803.668884 331.002045,785.837097 331.165680,768.007446 
	C331.183777,766.037842 332.181152,762.648560 333.315094,762.376099 
	C337.278198,761.423767 341.784302,759.051270 345.429749,763.167114 
	C346.958923,764.893555 348.077087,766.988953 349.346313,768.939880 
	C361.309784,787.329407 373.265533,805.724060 386.373779,824.036804 
	C386.373779,822.554382 386.373749,821.072021 386.373749,819.589661 
	C386.373779,802.758423 386.613525,785.921692 386.232819,769.099060 
	C386.113373,763.820251 387.621796,761.741455 392.862701,761.283325 
	C400.322327,760.631226 401.121552,761.073181 401.122345,768.778503 
	C401.124969,794.275330 401.169983,819.772400 401.061066,845.268799 
	C401.048218,848.277710 402.754608,852.287415 397.946167,853.610901 
	C393.945526,854.711975 387.109375,852.420349 385.041382,849.240051 
	C376.697632,836.408203 368.395752,823.549133 360.069214,810.706116 
	C355.669891,803.920471 351.251648,797.147156 346.000458,789.074646 
	C346.000458,797.581726 346.000427,804.636108 346.000458,811.690552 
	C346.000458,823.689087 346.016937,835.687622 345.992889,847.686096 
	C345.982422,852.917114 344.641632,854.105957 339.382629,853.649536 
	C338.056335,853.534485 336.745575,853.230347 335.418884,853.131958 
	C332.194489,852.892822 330.891754,851.440308 330.990326,847.994568 
	C331.233215,839.502563 331.069855,830.998962 331.069855,822.000000 
z"/>
<path fill="#171B1C" opacity="1.000000" stroke="none" 
	d="
M624.995117,830.999817 
	C624.995056,809.685852 625.032593,788.871765 624.953613,768.058044 
	C624.942017,764.997864 625.507996,762.488586 629.042053,762.560608 
	C642.833435,762.841736 656.693726,762.581238 670.386780,763.944641 
	C681.040833,765.005493 685.942932,770.568481 687.410400,781.142029 
	C688.270569,787.340027 688.173889,793.789551 687.593445,800.041016 
	C686.724426,809.399414 681.792664,815.824402 671.159790,817.594482 
	C674.326660,823.117249 677.163879,828.073853 680.009705,833.025391 
	C682.907349,838.067200 685.811157,843.105530 688.716736,848.142822 
	C690.791504,851.739746 689.302856,853.584656 685.606995,853.656616 
	C679.670044,853.772278 674.299316,853.197144 671.055237,846.628357 
	C667.018982,838.455566 661.827393,830.861145 657.431946,822.853821 
	C655.861328,819.992737 654.138733,818.702393 650.815674,819.013306 
	C647.383118,819.334534 643.897156,819.084717 639.922607,819.084717 
	C639.922607,828.713379 639.817078,837.983154 639.973389,847.248474 
	C640.037964,851.078247 639.494202,853.804321 634.764526,853.779602 
	C626.796753,853.737915 625.004944,852.600220 624.996765,846.985352 
	C624.989197,841.823486 624.995117,836.661621 624.995117,830.999817 
M659.181030,805.873413 
	C670.917419,805.219727 672.878418,803.161072 672.883240,791.299316 
	C672.884155,788.978271 672.632874,786.656982 672.496338,784.335938 
	C672.185791,779.057373 668.927795,776.429993 664.099487,776.233826 
	C656.179810,775.911926 648.237549,776.146667 640.158203,776.146667 
	C640.158203,786.067078 640.158203,795.790955 640.158203,805.888489 
	C646.341919,805.888489 652.293091,805.888489 659.181030,805.873413 
z"/>
<path fill="#171B1C" opacity="1.000000" stroke="none" 
	d="
M254.867844,772.097412 
	C254.892502,789.566772 254.802383,806.551270 254.980942,823.532837 
	C255.106400,835.464905 259.729401,839.930969 271.772675,840.255859 
	C274.261688,840.322998 276.779968,840.251648 279.248505,839.948608 
	C286.171600,839.098816 289.999542,835.593994 291.266785,828.656982 
	C291.859833,825.410583 292.020020,822.049500 292.034210,818.738953 
	C292.106903,801.755737 292.060089,784.772095 292.073578,767.788574 
	C292.077637,762.668274 294.520020,761.123596 302.198273,761.077454 
	C306.764771,761.050049 307.081818,763.969421 307.070587,767.452454 
	C307.011078,785.934265 307.109772,804.416992 306.948486,822.897583 
	C306.914001,826.850708 306.398529,830.885925 305.464600,834.727722 
	C303.180389,844.123962 297.328369,850.735229 287.644775,851.955505 
	C278.839966,853.064941 269.682556,853.575623 260.935059,852.421509 
	C248.050903,850.721741 240.816422,842.251465 240.300751,828.145508 
	C239.540894,807.359070 239.930481,786.528870 240.015579,765.718079 
	C240.020370,764.551270 241.490768,763.036621 242.666992,762.326843 
	C243.868652,761.601868 245.543137,761.634460 247.020538,761.397095 
	C253.248581,760.396179 254.821014,761.749512 254.866638,768.114746 
	C254.874985,769.280212 254.867828,770.445801 254.867844,772.097412 
z"/>
<path fill="#171B1C" opacity="1.000000" stroke="none" 
	d="
M592.916870,775.885620 
	C582.453979,775.885620 572.479492,775.885620 562.176636,775.885620 
	C562.176636,783.829468 562.176636,791.570251 562.176636,799.956665 
	C571.768188,799.956665 581.529236,799.955627 591.290344,799.956970 
	C598.709595,799.958008 601.737793,805.209778 597.783630,811.623108 
	C597.153259,812.645508 595.020508,813.172607 593.572998,813.190918 
	C583.267334,813.321655 572.959167,813.260559 562.250183,813.260559 
	C562.250183,821.709045 562.250183,829.936768 562.250183,838.914551 
	C567.226868,838.914551 572.474243,838.914429 577.721558,838.914551 
	C584.549622,838.914734 591.379822,839.018494 598.204773,838.873047 
	C601.769958,838.796997 603.976196,839.661377 603.930176,843.791260 
	C603.857849,850.286194 602.778870,852.168579 598.381714,852.178955 
	C583.559998,852.214050 568.737854,852.237976 553.916382,852.169067 
	C547.396729,852.138794 546.876648,851.508362 546.876160,845.042847 
	C546.874329,819.729126 546.872253,794.415405 546.877808,769.101685 
	C546.879211,762.857422 547.270386,762.441772 553.733276,762.428162 
	C568.221985,762.397644 582.710938,762.439575 597.199585,762.403809 
	C600.766846,762.394958 603.965820,762.469177 603.929504,767.438721 
	C603.878052,774.479797 602.842468,775.874573 596.902527,775.885254 
	C595.736755,775.887390 594.570984,775.885620 592.916870,775.885620 
z"/>
<path fill="#181C1D" opacity="1.000000" stroke="none" 
	d="
M477.149261,823.862244 
	C470.894867,805.047607 464.735931,786.618469 458.605042,768.179932 
	C456.755707,762.618042 457.792755,761.141174 463.438477,761.101257 
	C471.767700,761.042358 472.898529,761.864563 475.305054,769.848328 
	C481.390686,790.037964 487.465851,810.230774 493.717773,830.995544 
	C494.241821,829.740845 494.717377,828.849182 494.995728,827.899658 
	C500.975342,807.501099 506.919373,787.092163 512.904480,766.695251 
	C514.365601,761.715881 524.814880,758.545898 528.230957,762.273987 
	C529.174683,763.303833 528.932129,766.043457 528.384583,767.721497 
	C522.206787,786.655396 515.870422,805.537659 509.561218,824.428589 
	C506.774780,832.771729 503.821106,841.062256 501.216827,849.461487 
	C500.267487,852.523254 498.641571,854.277527 495.554749,853.666504 
	C492.003632,852.963562 487.353455,854.932495 485.649628,849.269897 
	C483.115692,840.848450 480.078522,832.578491 477.149261,823.862244 
z"/>
<path fill="#181C1D" opacity="1.000000" stroke="none" 
	d="
M750.000732,774.723877 
	C742.653992,774.803711 735.536438,774.030457 728.851318,775.387268 
	C720.955322,776.989868 719.175049,785.282959 725.276245,790.650208 
	C729.469299,794.338867 734.565063,797.001648 739.258545,800.121155 
	C743.131287,802.695251 747.246765,804.971497 750.832275,807.897400 
	C759.889709,815.288940 763.225647,824.947327 760.932983,836.411133 
	C759.173401,845.209900 751.454407,852.092041 740.608032,852.712952 
	C730.558899,853.288208 720.404724,852.316223 710.318115,851.685120 
	C708.486633,851.570557 705.277466,849.844177 705.257324,848.811890 
	C705.195129,845.638611 706.198364,842.382263 707.237488,839.310486 
	C707.411072,838.797241 709.846558,838.862549 711.212463,838.969971 
	C718.974731,839.580811 726.766113,841.101379 734.477966,840.756409 
	C744.602600,840.303589 749.810181,832.481934 745.564087,825.069763 
	C743.829712,822.042175 740.787781,819.512146 737.838257,817.487976 
	C732.778931,814.015991 727.220642,811.280701 722.057739,807.947998 
	C710.224609,800.309875 705.226501,789.927551 707.542297,778.638916 
	C709.267029,770.231384 714.573975,765.301819 722.532349,762.967957 
	C733.229797,759.830872 743.967285,761.029724 754.684509,762.944580 
	C758.470703,763.621033 760.770386,765.318237 759.741699,769.748352 
	C758.803772,773.787476 757.465332,776.869446 752.398376,775.077209 
	C751.784973,774.860291 751.082581,774.895264 750.000732,774.723877 
z"/>
<path fill="#181C1D" opacity="1.000000" stroke="none" 
	d="
M938.861389,808.928711 
	C934.428406,815.562134 932.979858,822.463745 933.507019,830.052979 
	C933.932922,836.184143 933.503479,842.370239 933.622620,848.528687 
	C933.699280,852.489075 931.695679,853.910156 928.057556,853.729248 
	C927.393311,853.696289 926.729797,853.628784 926.068665,853.553894 
	C918.765686,852.727661 918.157715,852.664307 918.884521,845.553894 
	C920.711060,827.684082 916.602417,811.594604 907.092712,796.378784 
	C901.393188,787.259338 897.052734,777.285950 892.176208,767.658508 
	C889.645935,762.663086 890.642273,761.277954 896.286560,761.034058 
	C902.314514,760.773560 906.348755,762.605103 909.003479,768.729309 
	C914.057617,780.388733 920.038391,791.646423 926.072205,803.964661 
	C932.081238,791.660461 938.060730,780.427979 943.062195,768.775635 
	C945.818298,762.354492 950.163513,760.720703 956.305725,761.051331 
	C961.339233,761.322449 962.256409,762.643433 959.949646,767.260742 
	C953.864685,779.440979 947.650818,791.556824 941.488708,803.698486 
	C940.662109,805.327087 939.837524,806.956726 938.861389,808.928711 
z"/>
<path fill="#171B1C" opacity="1.000000" stroke="none" 
	d="
M854.198730,816.000122 
	C854.198669,826.985596 854.049927,837.474121 854.268738,847.955017 
	C854.361145,852.380859 852.558289,853.947021 848.355225,853.741150 
	C839.727234,853.318665 839.238831,852.878357 839.238831,844.260010 
	C839.238770,823.289124 839.238831,802.318176 839.238831,781.347290 
	C839.238831,779.718079 839.238831,778.088867 839.238831,776.006653 
	C832.113220,776.006653 825.330017,775.888794 818.553711,776.052917 
	C814.762695,776.144714 813.012146,774.710632 813.081482,770.832886 
	C813.198364,764.288208 814.206970,762.667419 818.811401,762.661255 
	C837.452209,762.636230 856.093201,762.699585 874.733582,762.609314 
	C878.369873,762.591736 880.335327,763.530640 880.214233,767.662598 
	C880.016357,774.413452 879.212585,775.968750 874.750244,775.996216 
	C868.108643,776.037109 861.466614,776.006775 854.198730,776.006775 
	C854.198730,789.334351 854.198730,802.417236 854.198730,816.000122 
z"/>
<path fill="#1B1F20" opacity="1.000000" stroke="none" 
	d="
M787.601440,853.333618 
	C782.712463,853.317017 781.491882,851.156250 781.528625,846.718079 
	C781.746460,820.396790 781.632324,794.072754 781.639404,767.749634 
	C781.640930,762.051392 782.899292,761.327515 790.980286,761.045654 
	C795.986023,760.870972 796.665161,763.604614 796.652100,767.674194 
	C796.568848,793.663879 796.611450,819.653870 796.609680,845.643799 
	C796.609131,853.707031 795.973450,854.275940 787.601440,853.333618 
z"/>
<path fill="#161A1B" opacity="1.000000" stroke="none" 
	d="
M425.080383,776.018433 
	C425.080383,773.356567 424.857300,771.161316 425.140991,769.033630 
	C425.445343,766.751099 425.751434,762.919617 426.887360,762.585205 
	C430.408936,761.548401 434.337677,761.624329 438.077362,761.830627 
	C438.807678,761.870911 439.964874,764.433105 439.970520,765.835938 
	C440.082214,793.653809 440.117188,821.472717 439.876160,849.288940 
	C439.863251,850.781921 437.538055,852.891846 435.837799,853.552124 
	C434.176208,854.197388 431.939514,853.293884 429.949005,853.175293 
	C426.315277,852.958862 424.953400,851.374329 424.984985,847.475708 
	C425.176483,823.823425 425.080383,800.168762 425.080383,776.018433 
z"/>
<path fill="#FBFBFB" opacity="1.000000" stroke="none" 
	d="
M653.989746,343.003815 
	C666.382141,364.623505 678.619690,385.910889 691.250610,407.882416 
	C684.698853,407.882416 678.924988,408.154510 673.207458,407.707062 
	C671.611694,407.582153 669.682739,405.622070 668.749817,404.014526 
	C647.472717,367.349762 626.312134,330.617401 605.131470,293.896729 
	C600.895020,286.552002 596.527771,279.276581 592.547607,271.795380 
	C591.750549,270.297363 591.787964,267.678955 592.564026,266.145630 
	C595.025940,261.281403 598.019165,256.686157 601.249695,251.240738 
	C619.004578,282.111389 636.419739,312.391449 653.989746,343.003815 
z"/>
<path fill="#FBFBFB" opacity="1.000000" stroke="none" 
	d="
M608.173218,364.853485 
	C596.602539,344.833710 585.261475,325.103149 573.728210,305.485626 
	C572.160339,302.818787 572.066040,300.934814 573.794922,298.365173 
	C576.631470,294.149170 579.041687,289.646271 582.040283,284.573090 
	C605.662476,325.834534 628.884705,366.397339 652.628235,407.870667 
	C646.003845,407.870667 640.137390,408.051422 634.300781,407.714569 
	C633.165955,407.649017 631.891418,405.718384 631.115112,404.393829 
	C623.471680,391.352753 615.919983,378.257904 608.173218,364.853485 
z"/>
<path fill="#FBFBFB" opacity="1.000000" stroke="none" 
	d="
M607.849182,407.884888 
	C597.582397,409.985535 592.436279,405.388489 587.889587,396.842957 
	C577.511047,377.336670 566.028503,358.412323 554.760254,339.390289 
	C552.860779,336.183716 552.867310,333.886688 554.905701,330.903625 
	C557.705505,326.806213 560.067383,322.409546 563.126404,317.288086 
	C580.429016,347.569916 597.397400,377.266907 614.892090,407.884888 
	C612.114319,407.884888 610.218323,407.884888 607.849182,407.884888 
z"/>
<path fill="#FBFBFB" opacity="1.000000" stroke="none" 
	d="
M552.657959,402.422852 
	C546.581909,391.872070 540.611328,381.690155 534.946411,371.340942 
	C534.146606,369.879883 534.184937,367.266815 534.958130,365.764954 
	C537.521667,360.785522 540.598450,356.070251 543.901184,350.546448 
	C554.874573,369.752869 565.531677,388.405701 576.657959,407.879669 
	C569.730286,407.879669 563.626587,408.255951 557.623779,407.643829 
	C555.887512,407.466766 554.440552,404.452118 552.657959,402.422852 
z"/>
<path fill="#F7F7F7" opacity="1.000000" stroke="none" 
	d="
M518.166138,407.895020 
	C515.584534,407.895020 513.478027,407.895020 510.489319,407.895020 
	C515.277954,399.738373 519.682922,392.235352 524.406128,384.190308 
	C529.104614,392.250916 533.481140,399.759186 538.223511,407.895020 
	C531.164062,407.895020 524.902649,407.895020 518.166138,407.895020 
z"/>
<path fill="#FEFEFE" opacity="1.000000" stroke="none" 
	d="
M312.194519,683.370789 
	C305.274902,687.514282 297.926270,687.414551 290.599274,687.427368 
	C286.472839,687.434570 282.346405,687.428650 277.934692,687.428650 
	C277.934692,648.526611 277.934692,610.018860 277.934692,570.586304 
	C286.966003,571.102356 295.954468,571.027161 304.754089,572.279236 
	C314.158691,573.617371 319.436768,580.359863 321.735443,589.159912 
	C323.154480,594.592224 324.423035,600.277832 324.380676,605.839294 
	C324.231476,625.426514 323.864838,645.030396 322.772217,664.582764 
	C322.363617,671.894592 319.162231,678.757996 312.194519,683.370789 
z"/>
<path fill="#FBFBFB" opacity="1.000000" stroke="none" 
	d="
M554.336182,600.380981 
	C555.443542,596.131287 556.416077,592.272522 557.403381,588.417603 
	C558.389893,584.565125 559.391174,580.716431 560.781677,575.334778 
	C566.850769,600.301453 572.587402,623.900574 578.396362,647.797363 
	C566.367188,647.797363 554.776672,647.797363 542.385376,647.797363 
	C546.352478,632.018127 550.280090,616.395874 554.336182,600.380981 
z"/>
<path fill="#FCFCFC" opacity="1.000000" stroke="none" 
	d="
M658.712646,805.880981 
	C652.293091,805.888489 646.341919,805.888489 640.158203,805.888489 
	C640.158203,795.790955 640.158203,786.067078 640.158203,776.146667 
	C648.237549,776.146667 656.179810,775.911926 664.099487,776.233826 
	C668.927795,776.429993 672.185791,779.057373 672.496338,784.335938 
	C672.632874,786.656982 672.884155,788.978271 672.883240,791.299316 
	C672.878418,803.161072 670.917419,805.219727 658.712646,805.880981 
z"/>
</svg>